<?xml version="1.0" encoding="UTF-8" standalone="no"?><svg xmlns="http://www.w3.org/2000/svg" xmlns:xlink="http://www.w3.org/1999/xlink" contentScriptType="application/ecmascript" contentStyleType="text/css" height="1069px" preserveAspectRatio="none" style="width:1037px;height:1069px;background:#FFFFFF;" version="1.1" viewBox="0 0 1037 1069" width="1037px" zoomAndPan="magnify"><defs><filter height="300%" id="f1axqojy9e1gxs" width="300%" x="-1" y="-1"><feGaussianBlur result="blurOut" stdDeviation="2.0"/><feColorMatrix in="blurOut" result="blurOut2" type="matrix" values="0 0 0 0 0 0 0 0 0 0 0 0 0 0 0 0 0 0 .4 0"/><feOffset dx="4.0" dy="4.0" in="blurOut2" result="blurOut3"/><feBlend in="SourceGraphic" in2="blurOut3" mode="normal"/></filter></defs><g><!--MD5=[12ad08d51326dd5172f4e6da8b4d3826]
class MapArc--><rect codeLine="1" fill="#FEFECE" filter="url(#f1axqojy9e1gxs)" height="48" id="MapArc" style="stroke:#A80036;stroke-width:1.5;" width="78" x="431.5" y="632"/><ellipse cx="446.5" cy="648" fill="#ADD1B2" rx="11" ry="11" style="stroke:#A80036;stroke-width:1.0;"/><path d="M449.4688,653.6406 Q448.8906,653.9375 448.25,654.0781 Q447.6094,654.2344 446.9063,654.2344 Q444.4063,654.2344 443.0781,652.5938 Q441.7656,650.9375 441.7656,647.8125 Q441.7656,644.6875 443.0781,643.0313 Q444.4063,641.375 446.9063,641.375 Q447.6094,641.375 448.25,641.5313 Q448.9063,641.6875 449.4688,641.9844 L449.4688,644.7031 Q448.8438,644.125 448.25,643.8594 Q447.6563,643.5781 447.0313,643.5781 Q445.6875,643.5781 445,644.6563 Q444.3125,645.7188 444.3125,647.8125 Q444.3125,649.9063 445,650.9844 Q445.6875,652.0469 447.0313,652.0469 Q447.6563,652.0469 448.25,651.7813 Q448.8438,651.5 449.4688,650.9219 L449.4688,653.6406 Z " fill="#000000"/><text fill="#000000" font-family="sans-serif" font-size="12" lengthAdjust="spacing" textLength="46" x="460.5" y="652.1543">MapArc</text><line style="stroke:#A80036;stroke-width:1.5;" x1="432.5" x2="508.5" y1="664" y2="664"/><line style="stroke:#A80036;stroke-width:1.5;" x1="432.5" x2="508.5" y1="672" y2="672"/><!--MD5=[3fd616f346a44cd59a91eb10b19e157c]
class User--><rect codeLine="2" fill="#FEFECE" filter="url(#f1axqojy9e1gxs)" height="48" id="User" style="stroke:#A80036;stroke-width:1.5;" width="61" x="52" y="382"/><ellipse cx="67" cy="398" fill="#ADD1B2" rx="11" ry="11" style="stroke:#A80036;stroke-width:1.0;"/><path d="M69.9688,403.6406 Q69.3906,403.9375 68.75,404.0781 Q68.1094,404.2344 67.4063,404.2344 Q64.9063,404.2344 63.5781,402.5938 Q62.2656,400.9375 62.2656,397.8125 Q62.2656,394.6875 63.5781,393.0313 Q64.9063,391.375 67.4063,391.375 Q68.1094,391.375 68.75,391.5313 Q69.4063,391.6875 69.9688,391.9844 L69.9688,394.7031 Q69.3438,394.125 68.75,393.8594 Q68.1563,393.5781 67.5313,393.5781 Q66.1875,393.5781 65.5,394.6563 Q64.8125,395.7188 64.8125,397.8125 Q64.8125,399.9063 65.5,400.9844 Q66.1875,402.0469 67.5313,402.0469 Q68.1563,402.0469 68.75,401.7813 Q69.3438,401.5 69.9688,400.9219 L69.9688,403.6406 Z " fill="#000000"/><text fill="#000000" font-family="sans-serif" font-size="12" lengthAdjust="spacing" textLength="29" x="81" y="402.1543">User</text><line style="stroke:#A80036;stroke-width:1.5;" x1="53" x2="112" y1="414" y2="414"/><line style="stroke:#A80036;stroke-width:1.5;" x1="53" x2="112" y1="422" y2="422"/><!--MD5=[c5e1a2ffe8335c5dce66f34a1d95e2c4]
class GarbageScenarioVersion--><rect codeLine="3" fill="#FEFECE" filter="url(#f1axqojy9e1gxs)" height="48" id="GarbageScenarioVersion" style="stroke:#A80036;stroke-width:1.5;" width="188" x="467.5" y="507"/><ellipse cx="482.5" cy="523" fill="#ADD1B2" rx="11" ry="11" style="stroke:#A80036;stroke-width:1.0;"/><path d="M485.4688,528.6406 Q484.8906,528.9375 484.25,529.0781 Q483.6094,529.2344 482.9063,529.2344 Q480.4063,529.2344 479.0781,527.5938 Q477.7656,525.9375 477.7656,522.8125 Q477.7656,519.6875 479.0781,518.0313 Q480.4063,516.375 482.9063,516.375 Q483.6094,516.375 484.25,516.5313 Q484.9063,516.6875 485.4688,516.9844 L485.4688,519.7031 Q484.8438,519.125 484.25,518.8594 Q483.6563,518.5781 483.0313,518.5781 Q481.6875,518.5781 481,519.6563 Q480.3125,520.7188 480.3125,522.8125 Q480.3125,524.9063 481,525.9844 Q481.6875,527.0469 483.0313,527.0469 Q483.6563,527.0469 484.25,526.7813 Q484.8438,526.5 485.4688,525.9219 L485.4688,528.6406 Z " fill="#000000"/><text fill="#000000" font-family="sans-serif" font-size="12" lengthAdjust="spacing" textLength="156" x="496.5" y="527.1543">GarbageScenarioVersion</text><line style="stroke:#A80036;stroke-width:1.5;" x1="468.5" x2="654.5" y1="539" y2="539"/><line style="stroke:#A80036;stroke-width:1.5;" x1="468.5" x2="654.5" y1="547" y2="547"/><!--MD5=[9e8cdc57c56bad5cdfc47653c9df3022]
class VehicleType--><rect codeLine="4" fill="#FEFECE" filter="url(#f1axqojy9e1gxs)" height="48" id="VehicleType" style="stroke:#A80036;stroke-width:1.5;" width="106" x="244.5" y="382"/><ellipse cx="259.5" cy="398" fill="#ADD1B2" rx="11" ry="11" style="stroke:#A80036;stroke-width:1.0;"/><path d="M262.4688,403.6406 Q261.8906,403.9375 261.25,404.0781 Q260.6094,404.2344 259.9063,404.2344 Q257.4063,404.2344 256.0781,402.5938 Q254.7656,400.9375 254.7656,397.8125 Q254.7656,394.6875 256.0781,393.0313 Q257.4063,391.375 259.9063,391.375 Q260.6094,391.375 261.25,391.5313 Q261.9063,391.6875 262.4688,391.9844 L262.4688,394.7031 Q261.8438,394.125 261.25,393.8594 Q260.6563,393.5781 260.0313,393.5781 Q258.6875,393.5781 258,394.6563 Q257.3125,395.7188 257.3125,397.8125 Q257.3125,399.9063 258,400.9844 Q258.6875,402.0469 260.0313,402.0469 Q260.6563,402.0469 261.25,401.7813 Q261.8438,401.5 262.4688,400.9219 L262.4688,403.6406 Z " fill="#000000"/><text fill="#000000" font-family="sans-serif" font-size="12" lengthAdjust="spacing" textLength="74" x="273.5" y="402.1543">VehicleType</text><line style="stroke:#A80036;stroke-width:1.5;" x1="245.5" x2="349.5" y1="414" y2="414"/><line style="stroke:#A80036;stroke-width:1.5;" x1="245.5" x2="349.5" y1="422" y2="422"/><!--MD5=[3ece4acf097a6d4cf22379f16dcbbf46]
class VehicleTypeVersion--><rect codeLine="5" fill="#FEFECE" filter="url(#f1axqojy9e1gxs)" height="48" id="VehicleTypeVersion" style="stroke:#A80036;stroke-width:1.5;" width="153" x="169" y="507"/><ellipse cx="184" cy="523" fill="#ADD1B2" rx="11" ry="11" style="stroke:#A80036;stroke-width:1.0;"/><path d="M186.9688,528.6406 Q186.3906,528.9375 185.75,529.0781 Q185.1094,529.2344 184.4063,529.2344 Q181.9063,529.2344 180.5781,527.5938 Q179.2656,525.9375 179.2656,522.8125 Q179.2656,519.6875 180.5781,518.0313 Q181.9063,516.375 184.4063,516.375 Q185.1094,516.375 185.75,516.5313 Q186.4063,516.6875 186.9688,516.9844 L186.9688,519.7031 Q186.3438,519.125 185.75,518.8594 Q185.1563,518.5781 184.5313,518.5781 Q183.1875,518.5781 182.5,519.6563 Q181.8125,520.7188 181.8125,522.8125 Q181.8125,524.9063 182.5,525.9844 Q183.1875,527.0469 184.5313,527.0469 Q185.1563,527.0469 185.75,526.7813 Q186.3438,526.5 186.9688,525.9219 L186.9688,528.6406 Z " fill="#000000"/><text fill="#000000" font-family="sans-serif" font-size="12" lengthAdjust="spacing" textLength="121" x="198" y="527.1543">VehicleTypeVersion</text><line style="stroke:#A80036;stroke-width:1.5;" x1="170" x2="321" y1="539" y2="539"/><line style="stroke:#A80036;stroke-width:1.5;" x1="170" x2="321" y1="547" y2="547"/><!--MD5=[81bd20e0381b4631555d588155f2f5a3]
class Tour--><rect codeLine="6" fill="#FEFECE" filter="url(#f1axqojy9e1gxs)" height="48" id="Tour" style="stroke:#A80036;stroke-width:1.5;" width="60" x="239.5" y="757"/><ellipse cx="254.5" cy="773" fill="#ADD1B2" rx="11" ry="11" style="stroke:#A80036;stroke-width:1.0;"/><path d="M257.4688,778.6406 Q256.8906,778.9375 256.25,779.0781 Q255.6094,779.2344 254.9063,779.2344 Q252.4063,779.2344 251.0781,777.5938 Q249.7656,775.9375 249.7656,772.8125 Q249.7656,769.6875 251.0781,768.0313 Q252.4063,766.375 254.9063,766.375 Q255.6094,766.375 256.25,766.5313 Q256.9063,766.6875 257.4688,766.9844 L257.4688,769.7031 Q256.8438,769.125 256.25,768.8594 Q255.6563,768.5781 255.0313,768.5781 Q253.6875,768.5781 253,769.6563 Q252.3125,770.7188 252.3125,772.8125 Q252.3125,774.9063 253,775.9844 Q253.6875,777.0469 255.0313,777.0469 Q255.6563,777.0469 256.25,776.7813 Q256.8438,776.5 257.4688,775.9219 L257.4688,778.6406 Z " fill="#000000"/><text fill="#000000" font-family="sans-serif" font-size="12" lengthAdjust="spacing" textLength="28" x="268.5" y="777.1543">Tour</text><line style="stroke:#A80036;stroke-width:1.5;" x1="240.5" x2="298.5" y1="789" y2="789"/><line style="stroke:#A80036;stroke-width:1.5;" x1="240.5" x2="298.5" y1="797" y2="797"/><!--MD5=[3e49f4803b554c92c0b70fce4d7094e5]
class Facility--><rect codeLine="7" fill="#FEFECE" filter="url(#f1axqojy9e1gxs)" height="48" id="Facility" style="stroke:#A80036;stroke-width:1.5;" width="74" x="357.5" y="1007"/><ellipse cx="372.5" cy="1023" fill="#ADD1B2" rx="11" ry="11" style="stroke:#A80036;stroke-width:1.0;"/><path d="M375.4688,1028.6406 Q374.8906,1028.9375 374.25,1029.0781 Q373.6094,1029.2344 372.9063,1029.2344 Q370.4063,1029.2344 369.0781,1027.5938 Q367.7656,1025.9375 367.7656,1022.8125 Q367.7656,1019.6875 369.0781,1018.0313 Q370.4063,1016.375 372.9063,1016.375 Q373.6094,1016.375 374.25,1016.5313 Q374.9063,1016.6875 375.4688,1016.9844 L375.4688,1019.7031 Q374.8438,1019.125 374.25,1018.8594 Q373.6563,1018.5781 373.0313,1018.5781 Q371.6875,1018.5781 371,1019.6563 Q370.3125,1020.7188 370.3125,1022.8125 Q370.3125,1024.9063 371,1025.9844 Q371.6875,1027.0469 373.0313,1027.0469 Q373.6563,1027.0469 374.25,1026.7813 Q374.8438,1026.5 375.4688,1025.9219 L375.4688,1028.6406 Z " fill="#000000"/><text fill="#000000" font-family="sans-serif" font-size="12" lengthAdjust="spacing" textLength="42" x="386.5" y="1027.1543">Facility</text><line style="stroke:#A80036;stroke-width:1.5;" x1="358.5" x2="430.5" y1="1039" y2="1039"/><line style="stroke:#A80036;stroke-width:1.5;" x1="358.5" x2="430.5" y1="1047" y2="1047"/><!--MD5=[2741598bdf59a7d7e0d5c97658fd3022]
class Result--><rect codeLine="8" fill="#FEFECE" filter="url(#f1axqojy9e1gxs)" height="48" id="Result" style="stroke:#A80036;stroke-width:1.5;" width="71" x="325" y="632"/><ellipse cx="340" cy="648" fill="#ADD1B2" rx="11" ry="11" style="stroke:#A80036;stroke-width:1.0;"/><path d="M342.9688,653.6406 Q342.3906,653.9375 341.75,654.0781 Q341.1094,654.2344 340.4063,654.2344 Q337.9063,654.2344 336.5781,652.5938 Q335.2656,650.9375 335.2656,647.8125 Q335.2656,644.6875 336.5781,643.0313 Q337.9063,641.375 340.4063,641.375 Q341.1094,641.375 341.75,641.5313 Q342.4063,641.6875 342.9688,641.9844 L342.9688,644.7031 Q342.3438,644.125 341.75,643.8594 Q341.1563,643.5781 340.5313,643.5781 Q339.1875,643.5781 338.5,644.6563 Q337.8125,645.7188 337.8125,647.8125 Q337.8125,649.9063 338.5,650.9844 Q339.1875,652.0469 340.5313,652.0469 Q341.1563,652.0469 341.75,651.7813 Q342.3438,651.5 342.9688,650.9219 L342.9688,653.6406 Z " fill="#000000"/><text fill="#000000" font-family="sans-serif" font-size="12" lengthAdjust="spacing" textLength="39" x="354" y="652.1543">Result</text><line style="stroke:#A80036;stroke-width:1.5;" x1="326" x2="395" y1="664" y2="664"/><line style="stroke:#A80036;stroke-width:1.5;" x1="326" x2="395" y1="672" y2="672"/><!--MD5=[06abd8357bc654fcfcdbe9b331bc63b2]
class GarbageScenario--><rect codeLine="9" fill="#FEFECE" filter="url(#f1axqojy9e1gxs)" height="48" id="GarbageScenario" style="stroke:#A80036;stroke-width:1.5;" width="141" x="479" y="382"/><ellipse cx="494" cy="398" fill="#ADD1B2" rx="11" ry="11" style="stroke:#A80036;stroke-width:1.0;"/><path d="M496.9688,403.6406 Q496.3906,403.9375 495.75,404.0781 Q495.1094,404.2344 494.4063,404.2344 Q491.9063,404.2344 490.5781,402.5938 Q489.2656,400.9375 489.2656,397.8125 Q489.2656,394.6875 490.5781,393.0313 Q491.9063,391.375 494.4063,391.375 Q495.1094,391.375 495.75,391.5313 Q496.4063,391.6875 496.9688,391.9844 L496.9688,394.7031 Q496.3438,394.125 495.75,393.8594 Q495.1563,393.5781 494.5313,393.5781 Q493.1875,393.5781 492.5,394.6563 Q491.8125,395.7188 491.8125,397.8125 Q491.8125,399.9063 492.5,400.9844 Q493.1875,402.0469 494.5313,402.0469 Q495.1563,402.0469 495.75,401.7813 Q496.3438,401.5 496.9688,400.9219 L496.9688,403.6406 Z " fill="#000000"/><text fill="#000000" font-family="sans-serif" font-size="12" lengthAdjust="spacing" textLength="109" x="508" y="402.1543">GarbageScenario</text><line style="stroke:#A80036;stroke-width:1.5;" x1="480" x2="619" y1="414" y2="414"/><line style="stroke:#A80036;stroke-width:1.5;" x1="480" x2="619" y1="422" y2="422"/><!--MD5=[79d378210367c0c6ec62ef762ddfbd1b]
class Project--><rect codeLine="10" fill="#FEFECE" filter="url(#f1axqojy9e1gxs)" height="48" id="Project" style="stroke:#A80036;stroke-width:1.5;" width="76" x="336.5" y="257"/><ellipse cx="351.5" cy="273" fill="#ADD1B2" rx="11" ry="11" style="stroke:#A80036;stroke-width:1.0;"/><path d="M354.4688,278.6406 Q353.8906,278.9375 353.25,279.0781 Q352.6094,279.2344 351.9063,279.2344 Q349.4063,279.2344 348.0781,277.5938 Q346.7656,275.9375 346.7656,272.8125 Q346.7656,269.6875 348.0781,268.0313 Q349.4063,266.375 351.9063,266.375 Q352.6094,266.375 353.25,266.5313 Q353.9063,266.6875 354.4688,266.9844 L354.4688,269.7031 Q353.8438,269.125 353.25,268.8594 Q352.6563,268.5781 352.0313,268.5781 Q350.6875,268.5781 350,269.6563 Q349.3125,270.7188 349.3125,272.8125 Q349.3125,274.9063 350,275.9844 Q350.6875,277.0469 352.0313,277.0469 Q352.6563,277.0469 353.25,276.7813 Q353.8438,276.5 354.4688,275.9219 L354.4688,278.6406 Z " fill="#000000"/><text fill="#000000" font-family="sans-serif" font-size="12" lengthAdjust="spacing" textLength="44" x="365.5" y="277.1543">Project</text><line style="stroke:#A80036;stroke-width:1.5;" x1="337.5" x2="411.5" y1="289" y2="289"/><line style="stroke:#A80036;stroke-width:1.5;" x1="337.5" x2="411.5" y1="297" y2="297"/><!--MD5=[706e73df52f3df32f52be1ce9adb217e]
class Graph--><rect codeLine="11" fill="#FEFECE" filter="url(#f1axqojy9e1gxs)" height="48" id="Graph" style="stroke:#A80036;stroke-width:1.5;" width="70" x="690.5" y="507"/><ellipse cx="705.5" cy="523" fill="#ADD1B2" rx="11" ry="11" style="stroke:#A80036;stroke-width:1.0;"/><path d="M708.4688,528.6406 Q707.8906,528.9375 707.25,529.0781 Q706.6094,529.2344 705.9063,529.2344 Q703.4063,529.2344 702.0781,527.5938 Q700.7656,525.9375 700.7656,522.8125 Q700.7656,519.6875 702.0781,518.0313 Q703.4063,516.375 705.9063,516.375 Q706.6094,516.375 707.25,516.5313 Q707.9063,516.6875 708.4688,516.9844 L708.4688,519.7031 Q707.8438,519.125 707.25,518.8594 Q706.6563,518.5781 706.0313,518.5781 Q704.6875,518.5781 704,519.6563 Q703.3125,520.7188 703.3125,522.8125 Q703.3125,524.9063 704,525.9844 Q704.6875,527.0469 706.0313,527.0469 Q706.6563,527.0469 707.25,526.7813 Q707.8438,526.5 708.4688,525.9219 L708.4688,528.6406 Z " fill="#000000"/><text fill="#000000" font-family="sans-serif" font-size="12" lengthAdjust="spacing" textLength="38" x="719.5" y="527.1543">Graph</text><line style="stroke:#A80036;stroke-width:1.5;" x1="691.5" x2="759.5" y1="539" y2="539"/><line style="stroke:#A80036;stroke-width:1.5;" x1="691.5" x2="759.5" y1="547" y2="547"/><!--MD5=[b7f7a168e9caabdc2a012a9670567e2f]
class MapNode--><rect codeLine="12" fill="#FEFECE" filter="url(#f1axqojy9e1gxs)" height="48" id="MapNode" style="stroke:#A80036;stroke-width:1.5;" width="91" x="468" y="882"/><ellipse cx="483" cy="898" fill="#ADD1B2" rx="11" ry="11" style="stroke:#A80036;stroke-width:1.0;"/><path d="M485.9688,903.6406 Q485.3906,903.9375 484.75,904.0781 Q484.1094,904.2344 483.4063,904.2344 Q480.9063,904.2344 479.5781,902.5938 Q478.2656,900.9375 478.2656,897.8125 Q478.2656,894.6875 479.5781,893.0313 Q480.9063,891.375 483.4063,891.375 Q484.1094,891.375 484.75,891.5313 Q485.4063,891.6875 485.9688,891.9844 L485.9688,894.7031 Q485.3438,894.125 484.75,893.8594 Q484.1563,893.5781 483.5313,893.5781 Q482.1875,893.5781 481.5,894.6563 Q480.8125,895.7188 480.8125,897.8125 Q480.8125,899.9063 481.5,900.9844 Q482.1875,902.0469 483.5313,902.0469 Q484.1563,902.0469 484.75,901.7813 Q485.3438,901.5 485.9688,900.9219 L485.9688,903.6406 Z " fill="#000000"/><text fill="#000000" font-family="sans-serif" font-size="12" lengthAdjust="spacing" textLength="59" x="497" y="902.1543">MapNode</text><line style="stroke:#A80036;stroke-width:1.5;" x1="469" x2="558" y1="914" y2="914"/><line style="stroke:#A80036;stroke-width:1.5;" x1="469" x2="558" y1="922" y2="922"/><!--MD5=[deaf5c933eb712b3fdc320455b121438]
class CollectionPointScenarioVersion--><rect codeLine="13" fill="#FEFECE" filter="url(#f1axqojy9e1gxs)" height="48" id="CollectionPointScenarioVersion" style="stroke:#A80036;stroke-width:1.5;" width="227" x="796" y="507"/><ellipse cx="811" cy="523" fill="#ADD1B2" rx="11" ry="11" style="stroke:#A80036;stroke-width:1.0;"/><path d="M813.9688,528.6406 Q813.3906,528.9375 812.75,529.0781 Q812.1094,529.2344 811.4063,529.2344 Q808.9063,529.2344 807.5781,527.5938 Q806.2656,525.9375 806.2656,522.8125 Q806.2656,519.6875 807.5781,518.0313 Q808.9063,516.375 811.4063,516.375 Q812.1094,516.375 812.75,516.5313 Q813.4063,516.6875 813.9688,516.9844 L813.9688,519.7031 Q813.3438,519.125 812.75,518.8594 Q812.1563,518.5781 811.5313,518.5781 Q810.1875,518.5781 809.5,519.6563 Q808.8125,520.7188 808.8125,522.8125 Q808.8125,524.9063 809.5,525.9844 Q810.1875,527.0469 811.5313,527.0469 Q812.1563,527.0469 812.75,526.7813 Q813.3438,526.5 813.9688,525.9219 L813.9688,528.6406 Z " fill="#000000"/><text fill="#000000" font-family="sans-serif" font-size="12" lengthAdjust="spacing" textLength="195" x="825" y="527.1543">CollectionPointScenarioVersion</text><line style="stroke:#A80036;stroke-width:1.5;" x1="797" x2="1022" y1="539" y2="539"/><line style="stroke:#A80036;stroke-width:1.5;" x1="797" x2="1022" y1="547" y2="547"/><!--MD5=[b13ae7ee9cb0c073cf0fba244f56fa0b]
class CollectionPointScenario--><rect codeLine="14" fill="#FEFECE" filter="url(#f1axqojy9e1gxs)" height="48" id="CollectionPointScenario" style="stroke:#A80036;stroke-width:1.5;" width="180" x="808.5" y="382"/><ellipse cx="823.5" cy="398" fill="#ADD1B2" rx="11" ry="11" style="stroke:#A80036;stroke-width:1.0;"/><path d="M826.4688,403.6406 Q825.8906,403.9375 825.25,404.0781 Q824.6094,404.2344 823.9063,404.2344 Q821.4063,404.2344 820.0781,402.5938 Q818.7656,400.9375 818.7656,397.8125 Q818.7656,394.6875 820.0781,393.0313 Q821.4063,391.375 823.9063,391.375 Q824.6094,391.375 825.25,391.5313 Q825.9063,391.6875 826.4688,391.9844 L826.4688,394.7031 Q825.8438,394.125 825.25,393.8594 Q824.6563,393.5781 824.0313,393.5781 Q822.6875,393.5781 822,394.6563 Q821.3125,395.7188 821.3125,397.8125 Q821.3125,399.9063 822,400.9844 Q822.6875,402.0469 824.0313,402.0469 Q824.6563,402.0469 825.25,401.7813 Q825.8438,401.5 826.4688,400.9219 L826.4688,403.6406 Z " fill="#000000"/><text fill="#000000" font-family="sans-serif" font-size="12" lengthAdjust="spacing" textLength="148" x="837.5" y="402.1543">CollectionPointScenario</text><line style="stroke:#A80036;stroke-width:1.5;" x1="809.5" x2="987.5" y1="414" y2="414"/><line style="stroke:#A80036;stroke-width:1.5;" x1="809.5" x2="987.5" y1="422" y2="422"/><!--MD5=[7e20e022571e30ec1001cf6eabd7f3e2]
class Model--><rect codeLine="15" fill="#FEFECE" filter="url(#f1axqojy9e1gxs)" height="48" id="Model" style="stroke:#A80036;stroke-width:1.5;" width="69" x="19" y="132"/><ellipse cx="34" cy="148" fill="#ADD1B2" rx="11" ry="11" style="stroke:#A80036;stroke-width:1.0;"/><path d="M36.9688,153.6406 Q36.3906,153.9375 35.75,154.0781 Q35.1094,154.2344 34.4063,154.2344 Q31.9063,154.2344 30.5781,152.5938 Q29.2656,150.9375 29.2656,147.8125 Q29.2656,144.6875 30.5781,143.0313 Q31.9063,141.375 34.4063,141.375 Q35.1094,141.375 35.75,141.5313 Q36.4063,141.6875 36.9688,141.9844 L36.9688,144.7031 Q36.3438,144.125 35.75,143.8594 Q35.1563,143.5781 34.5313,143.5781 Q33.1875,143.5781 32.5,144.6563 Q31.8125,145.7188 31.8125,147.8125 Q31.8125,149.9063 32.5,150.9844 Q33.1875,152.0469 34.5313,152.0469 Q35.1563,152.0469 35.75,151.7813 Q36.3438,151.5 36.9688,150.9219 L36.9688,153.6406 Z " fill="#000000"/><text fill="#000000" font-family="sans-serif" font-size="12" lengthAdjust="spacing" textLength="37" x="48" y="152.1543">Model</text><line style="stroke:#A80036;stroke-width:1.5;" x1="20" x2="87" y1="164" y2="164"/><line style="stroke:#A80036;stroke-width:1.5;" x1="20" x2="87" y1="172" y2="172"/><!--MD5=[1d7ba1c7002d54515419844fbd155368]
class Controller--><rect codeLine="16" fill="#FEFECE" filter="url(#f1axqojy9e1gxs)" height="48" id="Controller" style="stroke:#A80036;stroke-width:1.5;" width="93" x="7" y="7"/><ellipse cx="22" cy="23" fill="#ADD1B2" rx="11" ry="11" style="stroke:#A80036;stroke-width:1.0;"/><path d="M24.9688,28.6406 Q24.3906,28.9375 23.75,29.0781 Q23.1094,29.2344 22.4063,29.2344 Q19.9063,29.2344 18.5781,27.5938 Q17.2656,25.9375 17.2656,22.8125 Q17.2656,19.6875 18.5781,18.0313 Q19.9063,16.375 22.4063,16.375 Q23.1094,16.375 23.75,16.5313 Q24.4063,16.6875 24.9688,16.9844 L24.9688,19.7031 Q24.3438,19.125 23.75,18.8594 Q23.1563,18.5781 22.5313,18.5781 Q21.1875,18.5781 20.5,19.6563 Q19.8125,20.7188 19.8125,22.8125 Q19.8125,24.9063 20.5,25.9844 Q21.1875,27.0469 22.5313,27.0469 Q23.1563,27.0469 23.75,26.7813 Q24.3438,26.5 24.9688,25.9219 L24.9688,28.6406 Z " fill="#000000"/><text fill="#000000" font-family="sans-serif" font-size="12" lengthAdjust="spacing" textLength="61" x="36" y="27.1543">Controller</text><line style="stroke:#A80036;stroke-width:1.5;" x1="8" x2="99" y1="39" y2="39"/><line style="stroke:#A80036;stroke-width:1.5;" x1="8" x2="99" y1="47" y2="47"/><!--MD5=[eae661cbeeb0d68d0f53c29153c02671]
reverse link Model to Project--><path codeLine="17" d="M100.63,174.3528 C164.5123,199.2291 277.3548,243.1709 336.2693,266.1126 " fill="none" id="Model-backto-Project" style="stroke:#A80036;stroke-width:1.0;"/><polygon fill="#A80036" points="88.1576,169.496,92.2972,175.4006,99.3397,173.8504,95.2001,167.9458,88.1576,169.496" style="stroke:#A80036;stroke-width:1.0;"/><text fill="#000000" font-family="sans-serif" font-size="13" lengthAdjust="spacing" textLength="54" x="234.5" y="223.0669">contains</text><text fill="#000000" font-family="sans-serif" font-size="13" lengthAdjust="spacing" textLength="8" x="96.1307" y="167.8133">1</text><text fill="#000000" font-family="sans-serif" font-size="13" lengthAdjust="spacing" textLength="23" x="305.6543" y="259.7616">0..*</text><!--MD5=[2e60b85283eec68fb985af438b76834e]
reverse link Model to User--><path codeLine="18" d="M57.868,193.6552 C63.9057,245.7045 74.6293,338.1491 79.6978,381.8427 " fill="none" id="Model-backto-User" style="stroke:#A80036;stroke-width:1.0;"/><polygon fill="#A80036" points="56.3334,180.4262,53.0515,186.8472,57.7163,192.3463,60.9982,185.9253,56.3334,180.4262" style="stroke:#A80036;stroke-width:1.0;"/><text fill="#000000" font-family="sans-serif" font-size="13" lengthAdjust="spacing" textLength="54" x="71.5" y="285.5669">contains</text><text fill="#000000" font-family="sans-serif" font-size="13" lengthAdjust="spacing" textLength="8" x="48.0636" y="199.8914">1</text><text fill="#000000" font-family="sans-serif" font-size="13" lengthAdjust="spacing" textLength="23" x="81.9266" y="370.8144">0..*</text><!--MD5=[dc70abb801931f48e8249fc39bdcdba8]
reverse link Controller to Model--><path codeLine="19" d="M53.5,68.2235 C53.5,88.8612 53.5,113.921 53.5,131.9727 " fill="none" id="Controller-backto-Model" style="stroke:#A80036;stroke-width:1.0;"/><polygon fill="#A80036" points="53.5,55.1013,49.5,61.1013,53.5,67.1013,57.5,61.1013,53.5,55.1013" style="stroke:#A80036;stroke-width:1.0;"/><text fill="#000000" font-family="sans-serif" font-size="13" lengthAdjust="spacing" textLength="54" x="54.5" y="98.0669">contains</text><text fill="#000000" font-family="sans-serif" font-size="13" lengthAdjust="spacing" textLength="8" x="44.525" y="74.8872">1</text><text fill="#000000" font-family="sans-serif" font-size="13" lengthAdjust="spacing" textLength="8" x="44.475" y="120.9777">1</text><!--MD5=[88cd0185d461c1f813eb1e2b5c50f17a]
reverse link User to Project--><path codeLine="20" d="M125.3958,387.1152 C158.2245,372.7111 204.6524,352.4447 245.5,335 C275.9777,321.984 310.6292,307.4958 336.3385,296.806 " fill="none" id="User-backto-Project" style="stroke:#A80036;stroke-width:1.0;"/><polygon fill="#A80036" points="113.0862,392.5212,120.1882,393.7709,124.0733,387.6959,116.9713,386.4462,113.0862,392.5212" style="stroke:#A80036;stroke-width:1.0;"/><text fill="#000000" font-family="sans-serif" font-size="13" lengthAdjust="spacing" textLength="68" x="246.5" y="348.0669">canAccess</text><text fill="#000000" font-family="sans-serif" font-size="13" lengthAdjust="spacing" textLength="8" x="121.0843" y="384.7521">1</text><text fill="#000000" font-family="sans-serif" font-size="13" lengthAdjust="spacing" textLength="23" x="305.4237" y="312.5979">0..*</text><!--MD5=[5cbe5a1c5d41aeb4c155c6982b2473f8]
reverse link Project to User--><path codeLine="21" d="M322.8754,284.5741 C252.2964,290.526 130.8469,304.9162 99.5,335 C87.0631,346.9358 83.0426,366.2279 82.006,381.6916 " fill="none" id="Project-backto-User" style="stroke:#A80036;stroke-width:1.0;"/><polygon fill="#A80036" points="336.2711,283.4941,329.969,279.9893,324.3099,284.4586,330.612,287.9634,336.2711,283.4941" style="stroke:#A80036;stroke-width:1.0;"/><text fill="#000000" font-family="sans-serif" font-size="13" lengthAdjust="spacing" textLength="101" x="100.5" y="348.0669">canBeAccessed</text><text fill="#000000" font-family="sans-serif" font-size="13" lengthAdjust="spacing" textLength="8" x="320.4851" y="279.6503">1</text><text fill="#000000" font-family="sans-serif" font-size="13" lengthAdjust="spacing" textLength="23" x="56.0825" y="371.0214">0..*</text><!--MD5=[55e6a49df095078acc93b0bfc1fde7e5]
reverse link Project to Graph--><path codeLine="22" d="M425.3458,289.1469 C482.9918,300.7305 576.8194,326.9893 637.5,382 C676.6738,417.5134 703.5774,474.6217 716.5665,506.8462 " fill="none" id="Project-backto-Graph" style="stroke:#A80036;stroke-width:1.0;"/><polygon fill="#A80036" points="412.5663,286.7005,417.7072,291.7573,424.3523,288.9567,419.2114,283.9,412.5663,286.7005" style="stroke:#A80036;stroke-width:1.0;"/><text fill="#000000" font-family="sans-serif" font-size="13" lengthAdjust="spacing" textLength="54" x="676.5" y="410.5669">contains</text><text fill="#000000" font-family="sans-serif" font-size="13" lengthAdjust="spacing" textLength="8" x="420.5852" y="301.2964">1</text><text fill="#000000" font-family="sans-serif" font-size="13" lengthAdjust="spacing" textLength="8" x="705.2523" y="495.8188">1</text><!--MD5=[4c016c48becb5f90d3d20deaeab0fb1a]
reverse link Project to GarbageScenario--><path codeLine="23" d="M418.8985,312.7132 C449.0458,334.247 488.2919,362.2799 515.8618,381.9727 " fill="none" id="Project-backto-GarbageScenario" style="stroke:#A80036;stroke-width:1.0;"/><polygon fill="#A80036" points="408.2418,305.1013,410.7992,311.8437,418.0066,312.0762,415.4492,305.3338,408.2418,305.1013" style="stroke:#A80036;stroke-width:1.0;"/><text fill="#000000" font-family="sans-serif" font-size="13" lengthAdjust="spacing" textLength="54" x="473.5" y="348.0669">contains</text><text fill="#000000" font-family="sans-serif" font-size="13" lengthAdjust="spacing" textLength="8" x="407.4914" y="324.8872">1</text><text fill="#000000" font-family="sans-serif" font-size="13" lengthAdjust="spacing" textLength="23" x="481.2951" y="370.9777">0..*</text><!--MD5=[b1a98542876072956bf7b392a59b0f75]
reverse link Project to CollectionPointScenario--><path codeLine="24" d="M425.93,284.5631 C496.4307,290.3841 626.5316,304.4924 733.5,335 C774.5856,346.7177 818.9515,366.2276 851.3201,381.8338 " fill="none" id="Project-backto-CollectionPointScenario" style="stroke:#A80036;stroke-width:1.0;"/><polygon fill="#A80036" points="412.649,283.5069,418.313,287.97,424.6112,284.4582,418.9472,279.9951,412.649,283.5069" style="stroke:#A80036;stroke-width:1.0;"/><text fill="#000000" font-family="sans-serif" font-size="13" lengthAdjust="spacing" textLength="54" x="780.5" y="348.0669">contains</text><text fill="#000000" font-family="sans-serif" font-size="13" lengthAdjust="spacing" textLength="8" x="420.4202" y="279.6654">1</text><text fill="#000000" font-family="sans-serif" font-size="13" lengthAdjust="spacing" textLength="23" x="813.2834" y="370.8032">0..*</text><!--MD5=[179850034f9f1e9b7b2aa05e251e87f4]
reverse link Project to VehicleType--><path codeLine="25" d="M345.6783,315.9489 C341.05,322.1422 336.4794,328.646 332.5,335 C323.1632,349.9083 314.4132,367.6583 307.9974,381.6812 " fill="none" id="Project-backto-VehicleType" style="stroke:#A80036;stroke-width:1.0;"/><polygon fill="#A80036" points="353.9563,305.2355,347.1225,307.5376,346.6192,314.7311,353.453,312.429,353.9563,305.2355" style="stroke:#A80036;stroke-width:1.0;"/><text fill="#000000" font-family="sans-serif" font-size="13" lengthAdjust="spacing" textLength="54" x="333.5" y="348.0669">contains</text><text fill="#000000" font-family="sans-serif" font-size="13" lengthAdjust="spacing" textLength="8" x="339.9738" y="325.0541">1</text><text fill="#000000" font-family="sans-serif" font-size="13" lengthAdjust="spacing" textLength="23" x="284.753" y="371.0084">0..*</text><!--MD5=[561cb943ef98b9f70a7ac5c6c8dc859a]
reverse link Project to Result--><path codeLine="26" d="M388.5045,317.8056 C390.1589,323.4892 391.5829,329.3485 392.5,335 C411.5083,452.1344 423.8635,487.553 392.5,602 C389.6198,612.51 384.1069,623.0488 378.4577,631.9902 " fill="none" id="Project-backto-Result" style="stroke:#A80036;stroke-width:1.0;"/><polygon fill="#A80036" points="384.3561,305.0433,382.4069,311.986,388.0658,316.4555,390.015,309.5128,384.3561,305.0433" style="stroke:#A80036;stroke-width:1.0;"/><text fill="#000000" font-family="sans-serif" font-size="13" lengthAdjust="spacing" textLength="54" x="413.5" y="473.0669">contains</text><text fill="#000000" font-family="sans-serif" font-size="13" lengthAdjust="spacing" textLength="8" x="377.8567" y="325.2102">1</text><text fill="#000000" font-family="sans-serif" font-size="13" lengthAdjust="spacing" textLength="23" x="357.1125" y="620.9997">0..*</text><!--MD5=[2cb71dee480345cf484fcd8372de0aa5]
reverse link Graph to MapNode--><path codeLine="27" d="M740.6458,567.3899 C755.2316,608.3666 771.6845,675.8939 746.5,727 C707.6044,805.9296 615.3344,859.7632 559.2806,886.484 " fill="none" id="Graph-backto-MapNode" style="stroke:#A80036;stroke-width:1.0;"/><polygon fill="#A80036" points="736.0309,555.0732,734.3904,562.0952,740.2413,566.3103,741.8818,559.2883,736.0309,555.0732" style="stroke:#A80036;stroke-width:1.0;"/><text fill="#000000" font-family="sans-serif" font-size="13" lengthAdjust="spacing" textLength="54" x="753.5" y="723.0669">contains</text><text fill="#000000" font-family="sans-serif" font-size="13" lengthAdjust="spacing" textLength="8" x="729.7044" y="575.2477">1</text><text fill="#000000" font-family="sans-serif" font-size="13" lengthAdjust="spacing" textLength="23" x="566.9777" y="879.9295">0..*</text><!--MD5=[e05f86ac1738c78817fec97ba199aa6e]
reverse link Graph to MapArc--><path codeLine="28" d="M678.5615,554.0091 C629.9715,577.8277 554.9389,614.6084 509.5006,636.882 " fill="none" id="Graph-backto-MapArc" style="stroke:#A80036;stroke-width:1.0;"/><polygon fill="#A80036" points="690.3111,548.2495,683.163,547.2987,679.536,553.5313,686.6842,554.4821,690.3111,548.2495" style="stroke:#A80036;stroke-width:1.0;"/><text fill="#000000" font-family="sans-serif" font-size="13" lengthAdjust="spacing" textLength="54" x="614.5" y="598.0669">contains</text><text fill="#000000" font-family="sans-serif" font-size="13" lengthAdjust="spacing" textLength="8" x="674.5958" y="547.2489">1</text><text fill="#000000" font-family="sans-serif" font-size="13" lengthAdjust="spacing" textLength="23" x="517.5491" y="629.7172">0..*</text><!--MD5=[0b38a61fb31567240fbe4b39862085db]
reverse link MapArc to MapNode--><path codeLine="29" d="M470.4494,693.5676 C471.0229,723.8966 473.2403,767.5362 480.5,805 C485.7289,831.984 496.0501,861.7717 503.7646,881.9584 " fill="none" id="MapArc-backto-MapNode" style="stroke:#A80036;stroke-width:1.0;"/><polygon fill="#FFFFFF" points="470.2872,680.2368,466.3606,686.2851,470.4334,692.2359,474.36,686.1876,470.2872,680.2368" style="stroke:#A80036;stroke-width:1.0;"/><text fill="#000000" font-family="sans-serif" font-size="13" lengthAdjust="spacing" textLength="54" x="481.5" y="785.5669">contains</text><text fill="#000000" font-family="sans-serif" font-size="13" lengthAdjust="spacing" textLength="23" x="444.4322" y="700.0557">0..*</text><text fill="#000000" font-family="sans-serif" font-size="13" lengthAdjust="spacing" textLength="8" x="492.2449" y="870.9598">2</text><!--MD5=[7789858d58fbce5b2f57a29fc535202f]
reverse link GarbageScenario to GarbageScenarioVersion--><path codeLine="30" d="M553.0735,443.2235 C555.0547,463.8612 557.4604,488.921 559.1934,506.9727 " fill="none" id="GarbageScenario-backto-GarbageScenarioVersion" style="stroke:#A80036;stroke-width:1.0;"/><polygon fill="#A80036" points="551.8137,430.1013,548.4054,436.4561,552.9606,442.0464,556.3688,435.6916,551.8137,430.1013" style="stroke:#A80036;stroke-width:1.0;"/><text fill="#000000" font-family="sans-serif" font-size="13" lengthAdjust="spacing" textLength="54" x="557.5" y="473.0669">contains</text><text fill="#000000" font-family="sans-serif" font-size="13" lengthAdjust="spacing" textLength="8" x="543.4027" y="449.8872">1</text><text fill="#000000" font-family="sans-serif" font-size="13" lengthAdjust="spacing" textLength="23" x="532.6555" y="495.9777">0..*</text><!--MD5=[62becbaf514ec1e5aee54c0c3cd82d61]
reverse link GarbageScenarioVersion to MapNode--><path codeLine="31" d="M560.8274,568.0091 C559.3773,620.9078 554.8152,721.0296 540.5,805 C535.9551,831.6596 527.5542,861.5005 521.3256,881.7883 " fill="none" id="GarbageScenarioVersion-backto-MapNode" style="stroke:#A80036;stroke-width:1.0;"/><polygon fill="#FFFFFF" points="561.1464,555.0043,557.0004,560.9044,560.8521,567.0007,564.998,561.1006,561.1464,555.0043" style="stroke:#A80036;stroke-width:1.0;"/><text fill="#000000" font-family="sans-serif" font-size="13" lengthAdjust="spacing" textLength="184" x="553.5" y="723.0669">makesGarbageEstimationOn</text><text fill="#000000" font-family="sans-serif" font-size="13" lengthAdjust="spacing" textLength="23" x="535.1089" y="575.1612">0..*</text><text fill="#000000" font-family="sans-serif" font-size="13" lengthAdjust="spacing" textLength="23" x="526.2778" y="870.7461">0..*</text><!--MD5=[7961131a3554059980e949880d0a903a]
reverse link CollectionPointScenario to CollectionPointScenarioVersion--><path codeLine="32" d="M901.7757,443.2235 C903.5918,463.8612 905.797,488.921 907.3856,506.9727 " fill="none" id="CollectionPointScenario-backto-CollectionPointScenarioVersion" style="stroke:#A80036;stroke-width:1.0;"/><polygon fill="#A80036" points="900.6209,430.1013,897.1623,436.4289,901.6729,442.0551,905.1315,435.7275,900.6209,430.1013" style="stroke:#A80036;stroke-width:1.0;"/><text fill="#000000" font-family="sans-serif" font-size="13" lengthAdjust="spacing" textLength="54" x="905.5" y="473.0669">contains</text><text fill="#000000" font-family="sans-serif" font-size="13" lengthAdjust="spacing" textLength="8" x="892.1629" y="449.8872">1</text><text fill="#000000" font-family="sans-serif" font-size="13" lengthAdjust="spacing" textLength="36" x="866.2313" y="495.9777">many</text><!--MD5=[0a9422e106d9f0eb26b30198e76ac1d5]
reverse link CollectionPointScenarioVersion to MapNode--><path codeLine="33" d="M896.9398,567.5882 C881.7633,608.7445 853.5796,676.4343 816.5,727 C764.1665,798.3674 740.5109,812.1331 661.5,852 C628.4124,868.6952 588.8881,882.8453 559.0107,892.4674 " fill="none" id="CollectionPointScenarioVersion-backto-MapNode" style="stroke:#A80036;stroke-width:1.0;"/><polygon fill="#FFFFFF" points="901.405,555.2134,895.606,559.4996,897.3321,566.5011,903.1311,562.2149,901.405,555.2134" style="stroke:#A80036;stroke-width:1.0;"/><text fill="#000000" font-family="sans-serif" font-size="13" lengthAdjust="spacing" textLength="152" x="828.5" y="723.0669">marksCollectionPointOn</text><text fill="#000000" font-family="sans-serif" font-size="13" lengthAdjust="spacing" textLength="23" x="873.6287" y="575.0266">0..*</text><text fill="#000000" font-family="sans-serif" font-size="13" lengthAdjust="spacing" textLength="23" x="567.0278" y="903.6953">0..*</text><!--MD5=[175ff11f8e3b5cb6993441103a20e17f]
reverse link VehicleType to VehicleTypeVersion--><path codeLine="34" d="M282.3836,442.3375 C273.7296,463.1404 263.1127,488.6619 255.4953,506.9727 " fill="none" id="VehicleType-backto-VehicleTypeVersion" style="stroke:#A80036;stroke-width:1.0;"/><polygon fill="#A80036" points="287.4739,430.1013,281.4762,434.1047,282.8648,441.1809,288.8626,437.1774,287.4739,430.1013" style="stroke:#A80036;stroke-width:1.0;"/><text fill="#000000" font-family="sans-serif" font-size="13" lengthAdjust="spacing" textLength="54" x="276.5" y="473.0669">contains</text><text fill="#000000" font-family="sans-serif" font-size="13" lengthAdjust="spacing" textLength="8" x="276.055" y="449.8872">1</text><text fill="#000000" font-family="sans-serif" font-size="13" lengthAdjust="spacing" textLength="36" x="217.4441" y="495.9777">many</text><!--MD5=[7137bf2073e6a850ea7661b7b7c1c8f6]
reverse link VehicleTypeVersion to MapArc--><path codeLine="35" d="M300.4593,561.533 C341.0023,584.0568 395.1885,614.1603 431.3883,634.2713 " fill="none" id="VehicleTypeVersion-backto-MapArc" style="stroke:#A80036;stroke-width:1.0;"/><polygon fill="#FFFFFF" points="288.8823,555.1013,292.1847,561.5118,299.3722,560.929,296.0698,554.5185,288.8823,555.1013" style="stroke:#A80036;stroke-width:1.0;"/><text fill="#000000" font-family="sans-serif" font-size="13" lengthAdjust="spacing" textLength="58" x="372.5" y="598.0669">activates</text><text fill="#000000" font-family="sans-serif" font-size="13" lengthAdjust="spacing" textLength="23" x="273.6536" y="574.8872">0..*</text><text fill="#000000" font-family="sans-serif" font-size="13" lengthAdjust="spacing" textLength="23" x="403.9465" y="643.1234">0..*</text><!--MD5=[8c6246462f7aa31c43adaa70e5965277]
reverse link GarbageScenarioVersion to Result--><path codeLine="36" d="M508.1518,561.7467 C495.4183,569.2415 481.9201,577.3157 469.5,585 C444.7249,600.3284 417.2411,618.2371 396.0693,632.2334 " fill="none" id="GarbageScenarioVersion-backto-Result" style="stroke:#A80036;stroke-width:1.0;"/><polygon fill="#A80036" points="519.5781,555.0545,512.3792,554.6353,509.2234,561.1192,516.4223,561.5384,519.5781,555.0545" style="stroke:#A80036;stroke-width:1.0;"/><text fill="#000000" font-family="sans-serif" font-size="13" lengthAdjust="spacing" textLength="65" x="470.5" y="598.0669">belongsTo</text><text fill="#000000" font-family="sans-serif" font-size="13" lengthAdjust="spacing" textLength="8" x="499.8106" y="575.2243">1</text><text fill="#000000" font-family="sans-serif" font-size="13" lengthAdjust="spacing" textLength="23" x="403.8652" y="624.1328">0..*</text><!--MD5=[4f3582ae4027b78b5572b963a2e516f9]
reverse link CollectionPointScenarioVersion to Result--><path codeLine="37" d="M830.1168,559.2589 C785.7394,574.0479 729.1261,591.2622 677.5,602 C561.8858,626.0467 527.3361,600.5957 413.5,632 C407.7551,633.5849 401.8431,635.714 396.1462,638.0523 " fill="none" id="CollectionPointScenarioVersion-backto-Result" style="stroke:#A80036;stroke-width:1.0;"/><polygon fill="#A80036" points="842.5891,555.0592,835.6263,553.183,831.2165,558.8886,838.1793,560.7648,842.5891,555.0592" style="stroke:#A80036;stroke-width:1.0;"/><text fill="#000000" font-family="sans-serif" font-size="13" lengthAdjust="spacing" textLength="65" x="742.5" y="598.0669">belongsTo</text><text fill="#000000" font-family="sans-serif" font-size="13" lengthAdjust="spacing" textLength="8" x="816.4182" y="575.2302">1</text><text fill="#000000" font-family="sans-serif" font-size="13" lengthAdjust="spacing" textLength="23" x="403.9548" y="648.3998">0..*</text><!--MD5=[8cb4533cb8977207f52e14718c5bc59f]
reverse link VehicleTypeVersion to Result--><path codeLine="38" d="M221.0113,567.0079 C216.0997,578.8087 214.3556,591.5598 221.5,602 C233.5621,619.6264 287.8189,636.964 324.8679,647.0627 " fill="none" id="VehicleTypeVersion-backto-Result" style="stroke:#A80036;stroke-width:1.0;"/><polygon fill="#A80036" points="227.0366,555.1908,220.7476,558.7191,221.5857,565.8813,227.8747,562.353,227.0366,555.1908" style="stroke:#A80036;stroke-width:1.0;"/><text fill="#000000" font-family="sans-serif" font-size="13" lengthAdjust="spacing" textLength="65" x="222.5" y="598.0669">belongsTo</text><text fill="#000000" font-family="sans-serif" font-size="13" lengthAdjust="spacing" textLength="23" x="225.3393" y="574.9985">0..*</text><text fill="#000000" font-family="sans-serif" font-size="13" lengthAdjust="spacing" textLength="23" x="294.0616" y="641.4182">0..*</text><!--MD5=[eb30e9429712be5605ab213c5ceb9eb3]
reverse link Result to Tour--><path codeLine="39" d="M313.7164,680.3455 C302.2667,688.3603 291.1266,698.2813 283.5,710 C274.454,723.8997 271.0145,742.3421 269.8049,756.9469 " fill="none" id="Result-backto-Tour" style="stroke:#A80036;stroke-width:1.0;"/><polygon fill="#A80036" points="324.6841,673.2489,317.4737,673.1501,314.6092,679.7679,321.8196,679.8667,324.6841,673.2489" style="stroke:#A80036;stroke-width:1.0;"/><text fill="#000000" font-family="sans-serif" font-size="13" lengthAdjust="spacing" textLength="54" x="284.5" y="723.0669">contains</text><text fill="#000000" font-family="sans-serif" font-size="13" lengthAdjust="spacing" textLength="8" x="309.0942" y="672.1868">1</text><text fill="#000000" font-family="sans-serif" font-size="13" lengthAdjust="spacing" textLength="23" x="272.8299" y="745.9453">0..*</text><!--MD5=[8b11db843c1fa9bc837bdb354eb8f462]
reverse link Tour to MapNode--><path codeLine="40" d="M258.7944,818.2242 C257.5988,830.1344 258.9679,842.6434 266.5,852 C291.3068,882.8161 403.6331,897.0078 467.9354,902.7084 " fill="none" id="Tour-backto-MapNode" style="stroke:#A80036;stroke-width:1.0;"/><polygon fill="#FFFFFF" points="261.0422,805.2315,256.0779,810.4618,258.9965,817.0558,263.9608,811.8256,261.0422,805.2315" style="stroke:#A80036;stroke-width:1.0;"/><text fill="#000000" font-family="sans-serif" font-size="13" lengthAdjust="spacing" textLength="54" x="267.5" y="848.0669">contains</text><text fill="#000000" font-family="sans-serif" font-size="13" lengthAdjust="spacing" textLength="23" x="233.1775" y="825.0491">0..*</text><text fill="#000000" font-family="sans-serif" font-size="13" lengthAdjust="spacing" textLength="23" x="436.9107" y="898.2671">1..*</text><!--MD5=[bcea924344f425cc76206c508e338263]
reverse link VehicleTypeVersion to Tour--><path codeLine="41" d="M217.9019,566.1977 C214.4491,572.186 211.4499,578.56 209.5,585 C207.3105,592.2314 208.2835,594.543 209.5,602 C218.8406,659.2562 243.9475,722.9074 258.5536,756.7397 " fill="none" id="VehicleTypeVersion-backto-Tour" style="stroke:#A80036;stroke-width:1.0;"/><polygon fill="#A80036" points="224.9444,555.2414,218.3353,558.1259,218.4559,565.3359,225.065,562.4515,224.9444,555.2414" style="stroke:#A80036;stroke-width:1.0;"/><text fill="#000000" font-family="sans-serif" font-size="13" lengthAdjust="spacing" textLength="65" x="230.5" y="660.5669">belongsTo</text><text fill="#000000" font-family="sans-serif" font-size="13" lengthAdjust="spacing" textLength="8" x="210.959" y="575.0614">1</text><text fill="#000000" font-family="sans-serif" font-size="13" lengthAdjust="spacing" textLength="23" x="230.0823" y="746.0812">0..*</text><!--MD5=[0fac904c0345cfbf40ff5b8a1442cd35]
reverse link Result to Facility--><path codeLine="42" d="M363.8664,693.1295 C370.7978,769.579 386.4985,942.7485 392.2956,1006.6864 " fill="none" id="Result-backto-Facility" style="stroke:#A80036;stroke-width:1.0;"/><polygon fill="#A80036" points="362.6786,680.0284,359.2368,686.3651,363.7623,691.9794,367.2041,685.6427,362.6786,680.0284" style="stroke:#A80036;stroke-width:1.0;"/><text fill="#000000" font-family="sans-serif" font-size="13" lengthAdjust="spacing" textLength="54" x="379.5" y="848.0669">contains</text><text fill="#000000" font-family="sans-serif" font-size="13" lengthAdjust="spacing" textLength="8" x="354.2119" y="700.1915">1</text><text fill="#000000" font-family="sans-serif" font-size="13" lengthAdjust="spacing" textLength="23" x="365.9552" y="996.0149">0..*</text><!--MD5=[523563a17d962d028fd0610c4c06e32f]
reverse link MapNode to Facility--><path codeLine="43" d="M481.4038,939.7145 C461.1777,960.9604 435.5459,987.8845 417.374,1006.9727 " fill="none" id="MapNode-backto-Facility" style="stroke:#A80036;stroke-width:1.0;"/><polygon fill="#A80036" points="490.5556,930.1013,483.5214,931.6889,482.2814,938.7926,489.3156,937.205,490.5556,930.1013" style="stroke:#A80036;stroke-width:1.0;"/><text fill="#000000" font-family="sans-serif" font-size="13" lengthAdjust="spacing" textLength="65" x="462.5" y="973.0669">belongsTo</text><text fill="#000000" font-family="sans-serif" font-size="13" lengthAdjust="spacing" textLength="8" x="475.9879" y="949.8872">1</text><text fill="#000000" font-family="sans-serif" font-size="13" lengthAdjust="spacing" textLength="24" x="396.1605" y="995.9777">0..1</text><!--MD5=[9bf2215ecaab12ad12c2a7c6cd93ffb9]
@startuml
class MapArc {}
class User {}
class GarbageScenarioVersion {}
class VehicleType {}
class VehicleTypeVersion {}
class Tour {}
class Facility {}
class Result {}
class GarbageScenario {}
class Project {}
class Graph {}
class MapNode {}
class CollectionPointScenarioVersion {}
class CollectionPointScenario {}
class Model {}
class Controller {}
Model "1" *- - "0..*" Project : contains
Model "1" *- - "0..*" User : contains
Controller "1" *- - "1" Model : contains
User "1" *- - "0..*" Project : canAccess
Project "1" *- - "0..*" User : canBeAccessed
Project "1" *- - "1" Graph : contains
Project "1" *- - "0..*" GarbageScenario : contains
Project "1" *- - "0..*" CollectionPointScenario : contains
Project "1" *- - "0..*" VehicleType : contains
Project "1" *- - "0..*" Result : contains
Graph "1" *- - "0..*" MapNode : contains
Graph "1" *- - "0..*" MapArc : contains
MapArc "0..*" o- - "2" MapNode : contains
GarbageScenario "1" *- - "0..*" GarbageScenarioVersion : contains
GarbageScenarioVersion "0..*" o- - "0..*" MapNode : makesGarbageEstimationOn
CollectionPointScenario "1" *- - "many" CollectionPointScenarioVersion : contains
CollectionPointScenarioVersion "0..*" o- - "0..*" MapNode : marksCollectionPointOn
VehicleType "1" *- - "many" VehicleTypeVersion : contains
VehicleTypeVersion "0..*" o- - "0..*" MapArc : activates
GarbageScenarioVersion "1" *- - "0..*" Result : belongsTo
CollectionPointScenarioVersion "1" *- - "0..*" Result : belongsTo
VehicleTypeVersion "0..*" *- - "0..*" Result : belongsTo
Result "1" *- - "0..*" Tour : contains
Tour "0..*" o- - "1..*" MapNode : contains
VehicleTypeVersion "1" *- - "0..*" Tour : belongsTo
Result "1" *- - "0..*" Facility : contains
MapNode "1" *- - "0..1" Facility : belongsTo
@enduml

PlantUML version 1.2021.7(Sun May 23 12:40:07 UTC 2021)
(GPL source distribution)
Java Runtime: OpenJDK Runtime Environment
JVM: OpenJDK 64-Bit Server VM
Default Encoding: UTF-8
Language: en
Country: US
--></g></svg>